<svg width="62" height="61" viewBox="0 0 62 61" fill="none" xmlns="http://www.w3.org/2000/svg">
<path d="M46.5 25.4167H43.245C42.2785 21.7339 40.2814 18.3916 37.4806 15.7696C34.6799 13.1476 31.1878 11.3511 27.4012 10.5843C23.6145 9.81742 19.6852 10.1109 16.0596 11.4315C12.4341 12.752 9.2577 15.0466 6.89139 18.0545C4.52509 21.0624 3.06377 24.6631 2.67347 28.4473C2.28317 32.2315 2.97955 36.0476 4.68348 39.4619C6.38741 42.8762 9.03056 45.7518 12.3126 47.762C15.5946 49.7721 19.3839 50.8363 23.25 50.8334H46.5C49.9257 50.8334 53.2111 49.4945 55.6334 47.1112C58.0558 44.728 59.4166 41.4955 59.4166 38.1251C59.4166 34.7546 58.0558 31.5222 55.6334 29.1389C53.2111 26.7557 49.9257 25.4167 46.5 25.4167Z" stroke="#0076F6" stroke-width="4" stroke-linecap="round" stroke-linejoin="round"/>
</svg>
