<svg width="49" height="49" viewBox="0 0 49 49" fill="none" xmlns="http://www.w3.org/2000/svg">
<path d="M16.9819 34.5467L24.9819 42.5467M24.9819 42.5467L32.9819 34.5467M24.9819 42.5467V24.5467M42.7419 36.7267C44.4807 35.504 45.7846 33.759 46.4645 31.745C47.1443 29.731 47.1647 27.5528 46.5227 25.5264C45.8807 23.5 44.6097 21.7309 42.8941 20.4759C41.1785 19.2208 39.1076 18.5451 36.9819 18.5467H34.4619C33.8604 16.2025 32.7349 14.0252 31.1702 12.1789C29.6054 10.3326 27.6422 8.86526 25.4283 7.88745C23.2145 6.90964 20.8076 6.4468 18.389 6.53377C15.9703 6.62075 13.6029 7.25528 11.465 8.38959C9.32711 9.5239 7.47437 11.1284 6.0463 13.0824C4.61822 15.0364 3.65203 17.2888 3.22044 19.6702C2.78886 22.0516 2.90314 24.4999 3.55468 26.8308C4.20622 29.1616 5.37804 31.3143 6.98192 33.1267" stroke="#1E1E1E" stroke-width="4" stroke-linecap="round" stroke-linejoin="round"/>
</svg>
