<svg width="62" height="60" viewBox="0 0 62 60" fill="none" xmlns="http://www.w3.org/2000/svg">
<path d="M46.5 25H43.245C42.2785 21.3775 40.2814 18.09 37.4806 15.511C34.6799 12.932 31.1878 11.165 27.4012 10.4107C23.6145 9.6564 19.6852 9.9451 16.0596 11.244C12.4341 12.5429 9.2577 14.7998 6.89139 17.7585C4.52509 20.7171 3.06377 24.2587 2.67347 27.9809C2.28317 31.7031 2.97955 35.4566 4.68348 38.8149C6.38741 42.1732 9.03056 45.0017 12.3126 46.9789C15.5946 48.9561 19.3839 50.0028 23.25 50H46.5C49.9257 50 53.2111 48.683 55.6334 46.3388C58.0558 43.9946 59.4166 40.8152 59.4166 37.5C59.4166 34.1848 58.0558 31.0054 55.6334 28.6612C53.2111 26.317 49.9257 25 46.5 25Z" stroke="#FF7B00" stroke-width="4" stroke-linecap="round" stroke-linejoin="round"/>
</svg>
