<svg width="61" height="61" viewBox="0 0 61 61" fill="none" xmlns="http://www.w3.org/2000/svg">
<path d="M45.7499 25.4167H42.5474C41.5965 21.7339 39.6316 18.3916 36.876 15.7696C34.1204 13.1476 30.6847 11.3511 26.9591 10.5843C23.2336 9.81742 19.3676 10.1109 15.8005 11.4315C12.2335 12.752 9.10829 15.0466 6.78016 18.0545C4.45202 21.0624 3.01427 24.6631 2.63026 28.4473C2.24626 32.2315 2.93141 36.0476 4.60785 39.4619C6.2843 42.8762 8.88482 45.7518 12.1139 47.762C15.343 49.7721 19.0712 50.8363 22.8749 50.8334H45.7499C49.1203 50.8334 52.3527 49.4945 54.736 47.1112C57.1193 44.728 58.4582 41.4955 58.4582 38.1251C58.4582 34.7546 57.1193 31.5222 54.736 29.1389C52.3527 26.7557 49.1203 25.4167 45.7499 25.4167Z" stroke="#FF0000" stroke-width="4" stroke-linecap="round" stroke-linejoin="round"/>
</svg>
