<svg width="60" height="44" viewBox="0 0 60 44" fill="none" xmlns="http://www.w3.org/2000/svg">
<path d="M45.2235 17H42.021C41.0701 13.3775 39.1052 10.09 36.3496 7.51099C33.5941 4.93201 30.1583 3.16498 26.4328 2.41069C22.7072 1.6564 18.8412 1.9451 15.2742 3.24398C11.7071 4.54286 8.58192 6.79984 6.25379 9.75845C3.92565 12.7171 2.4879 16.2587 2.1039 19.9809C1.71989 23.7031 2.40504 27.4566 4.08149 30.8149C5.75793 34.1732 8.35845 37.0017 11.5876 38.9789C14.8166 40.9561 18.5448 42.0028 22.3485 42H45.2235C48.594 42 51.8264 40.683 54.2097 38.3388C56.5929 35.9946 57.9318 32.8152 57.9318 29.5C57.9318 26.1848 56.5929 23.0054 54.2097 20.6612C51.8264 18.317 48.594 17 45.2235 17Z" stroke="#9CD3FF" stroke-width="4" stroke-linecap="round" stroke-linejoin="round"/>
</svg>
