<svg width="61" height="60" viewBox="0 0 61 60" fill="none" xmlns="http://www.w3.org/2000/svg">
<path d="M45.7499 25H42.5474C41.5965 21.3775 39.6316 18.09 36.876 15.511C34.1204 12.932 30.6847 11.165 26.9591 10.4107C23.2336 9.6564 19.3676 9.9451 15.8005 11.244C12.2335 12.5429 9.10829 14.7998 6.78016 17.7585C4.45202 20.7171 3.01427 24.2587 2.63026 27.9809C2.24626 31.7031 2.93141 35.4566 4.60785 38.8149C6.2843 42.1732 8.88482 45.0017 12.1139 46.9789C15.343 48.9561 19.0712 50.0028 22.8749 50H45.7499C49.1203 50 52.3527 48.683 54.736 46.3388C57.1193 43.9946 58.4582 40.8152 58.4582 37.5C58.4582 34.1848 57.1193 31.0054 54.736 28.6612C52.3527 26.317 49.1203 25 45.7499 25Z" stroke="#FFDD00" stroke-width="4" stroke-linecap="round" stroke-linejoin="round"/>
</svg>
